<svg xmlns="http://www.w3.org/2000/svg" width="24" height="24" viewBox="0 0 24 24" fill="none">
<path d="M16 2.7V15.3C16 15.4857 15.9263 15.6637 15.795 15.795C15.6637 15.9263 15.4857 16 15.3 16H5.5C5.31435 16 5.1363 15.9263 5.00503 15.795C4.87375 15.6637 4.8 15.4857 4.8 15.3V11.1C4.8 10.9143 4.87375 10.7363 5.00503 10.605C5.1363 10.4738 5.31435 10.4 5.5 10.4C5.68565 10.4 5.8637 10.4738 5.99497 10.605C6.12625 10.7363 6.2 10.9143 6.2 11.1V14.6H14.6V3.4H6.2V6.9C6.2 7.08565 6.12625 7.2637 5.99497 7.39497C5.8637 7.52625 5.68565 7.6 5.5 7.6C5.31435 7.6 5.1363 7.52625 5.00503 7.39497C4.87375 7.2637 4.8 7.08565 4.8 6.9V2.7C4.8 2.51435 4.87375 2.3363 5.00503 2.20503C5.1363 2.07375 5.31435 2 5.5 2H15.3C15.4857 2 15.6637 2.07375 15.795 2.20503C15.9263 2.3363 16 2.51435 16 2.7ZM10.022 10.484C9.95639 10.5491 9.90431 10.6265 9.86878 10.7118C9.83324 10.7971 9.81494 10.8886 9.81494 10.981C9.81494 11.0734 9.83324 11.1649 9.86878 11.2502C9.90431 11.3355 9.95639 11.4129 10.022 11.478C10.0874 11.5429 10.165 11.5942 10.2503 11.629C10.3356 11.6639 10.4269 11.6815 10.519 11.681C10.6111 11.6815 10.7024 11.6639 10.7877 11.629C10.873 11.5942 10.9506 11.5429 11.016 11.478L12.997 9.497C13.0607 9.43043 13.1107 9.35193 13.144 9.266C13.214 9.09558 13.214 8.90442 13.144 8.734C13.1107 8.64807 13.0607 8.56957 12.997 8.503L11.016 6.522C10.8842 6.39019 10.7054 6.31614 10.519 6.31614C10.3326 6.31614 10.1538 6.39019 10.022 6.522C9.89019 6.65381 9.81614 6.83259 9.81614 7.019C9.81614 7.20541 9.89019 7.38419 10.022 7.516L10.813 8.3H2.7C2.51435 8.3 2.3363 8.37375 2.20503 8.50503C2.07375 8.6363 2 8.81435 2 9C2 9.18565 2.07375 9.3637 2.20503 9.49497C2.3363 9.62625 2.51435 9.7 2.7 9.7H10.813L10.022 10.484Z" fill="white"/>
</svg>